<svg xmlns="http://www.w3.org/2000/svg" width="1600" height="1200"><path d="M1219.507 886.857v-181.64h-4.17v-4.552h4.17v-2.702h-4.17l-2-12.46h6.17v-2.552h-4.17v-6.66h4.17v-6.964h7.17v-42.054h1.607v-17.5h1.965v17.5h1.427v42.054h7.275v6.964h4.29v6.66h-4.29v2.553h6.743l-2.454 12.46h-4.288v2.702h4.29v4.553h-4.29v181.64z" fill="#1a1a1a"/><g fill="#1a1a1a"><path d="M1185.284 886.857V657.272h-56.928l-14 14v215.585z"/><path d="M1132.823 655.15h24.054l-.063-16.353zm62.783-31.45v32.23c0 7.325-3.37 11.7-10.322 11.7h-72.178c-5.715 0-8.572-4.287-8.572-9.287 0-2.79 1.428-4.522 3.215-6.07l54.504-34.487s7.23-5.157 12.28-5.157h12.5c7.857 0 8.572 6.78 8.572 11.07z"/></g><path d="M1355.784 780.486l11.43 106.37h-84.287l-18.57-151.727z" fill="#1a1a1a"/><path style="text-indent:0;text-align:start;line-height:normal;text-transform:none;block-progression:tb;-inkscape-font-specification:Sans" d="M1265.937 735.913l-1.58-.784.32 2.634 51.513 127.218 1.742.98 1.13-1.034z" color="#000" fill="#4d4d4d" overflow="visible" font-family="Sans"/><path d="M1174.713 886.857h86.07c0-19.197 21.234-37.442 54.287-37.442 31.756 0 52.412 18.244 52.143 37.442h69.643v-116.37l-18.75-26.43-20.536 25.536h-24.464l-8.215 11.43V808.7l-9.463 12.322h-115.893l-15.893-18.57h-19.463l-9.107-6.25h-5.536v6.25h-14.82zM1468.753 774.732l18.53 21.333-.155 73.604h-18.375zM1518.253 758.576l-14.22 37.803v73.29h1.095l13.125-5.032z" fill="#4d4d4d"/><path d="M1518.253 758.576v106.062l-13.125 5.03h-1.094v-66.217l5.804-16.522-36.523 1.786v15.893l11.094 8.406h11.718l-.094 34.938-8.75-8.53-.156 30.25h-18.375V774.73l-41.406-13.125v125.25h132.343l4.032-123.25z" fill="#1a1a1a"/><path d="M543.64 824.665v-16.4h-.534v16.4z" fill="#4d4d4d"/><path d="M543.106 809.448c-3.32-.89-3.312.967-6.92 0v4.866c3.69.99 3.71-.86 6.92 0z" fill="#333"/><path d="M578.95 807.496v-16.4h-.535v16.4z" fill="#4d4d4d"/><path d="M578.415 792.28c-3.32-.89-3.312.966-6.92 0v4.865c3.69.988 3.708-.86 6.92 0z" fill="#333"/><path d="M616.07 824.658v-16.4h-.536v16.4z" fill="#4d4d4d"/><path d="M615.534 809.44c-3.32-.89-3.31.968-6.92 0v4.867c3.69.988 3.71-.86 6.92 0z" fill="#333"/><path d="M659.377 886.857V853.14c0-3.095-2.327-7.388-7.387-7.388h-28.095v-9.154l-.595-5.49-.596 5.49h-1.08c0-7.324-4.926-11.996-4.926-11.996h-1.894s-4.293 4.987-4.293 11.996h-.797l-.58-5.49-.58 5.49-.062 4.672h-1.302v-16.447c-.252-7.513-10.61-10.45-15.302-10.45h-5.492v-4.23h-.884s-4.038-2.332-5.534-2.332l-1.275-.76-1.274.76c-1.674 0-5.68 2.334-5.68 2.334h-.757v4.23h-5.048c-3.75 0-13.433 5.895-13.39 10.45v16.446h-1.198v-4.672l-.6-5.49-.6 5.49h-.757c0-7.397-5.013-12.122-5.013-12.122h-1.894s-5.488 4.983-5.488 12.122h-1.294l-.742-5.49-.742 5.49v9.47h-31.168c-6.345 0-9.975 4.16-9.975 9.975v30.814z" fill="#4d4d4d"/><path d="M815.95 886.857v-77.47l2.526-2.336v-27.036l-1.326-8.616-1.326 8.616h-3.914v-28.27l-6.484-24.197-6.47 24.153v28.314h-3.46l-1.137-8.616-1.138 8.616v27.037l2.147 2.337v19.508h-20.962l-5.43-9.217-1.04-4.822-1.043 4.822h-12.69l-.82-8.208-.82 8.208h-14.017l-2.568-4.822-1.115-28.135-1.115 28.136-2.278 4.822H718.85l-1.2-8.208-1.2 8.208h-13.258l-.757-4.822-.758 4.822-4.167 7.955-22.476-.506-2.4-5.492-4.48-30.368-4.484 30.368-.63 18.246-8.875 6.945v40.032z" fill="#1a1a1a"/><g><path d="M484.873 886.857V742.4h4.798v-16.667h2.21v-9.407h5.557v4.61h3.157V716.2h3.535v14.52h8.08v17.805h5.24v138.332z" fill="#1a1a1a"/><path d="M489.67 725.754l-16.832 8.036v21.07l-4.978 4.98h10.915v127.017h6.098V742.4h4.798z" fill="#4d4d4d"/><path d="M478.775 759.84h-15.937v127.017h15.937z" fill="#1a1a1a"/><path d="M462.838 886.857V749.415l-10.782 8.852-.073 128.59z" fill="#4d4d4d"/><path d="M457.034 886.857h-13.928v-130.3h6.778l7.15 5.626z" fill="#1a1a1a"/><path d="M443.106 886.857V745.81l-8.285 8.285v132.762z" fill="#4d4d4d"/><path d="M439.038 757.553v129.304h-9.723V768.54z" fill="#1a1a1a"/></g><g><path d="M1077.328 886.857V781.292l-15.153-38.386-17.172 14.647v24.244l-8.587 18.688v86.372z" fill="#1a1a1a"/></g><g><path d="M956.052 605.183v32.982c0 3.887-19.51 4.732-19.51 4.732v-6.57c0-7.595 17.1-31.144 19.51-31.144zm84.375 281.674V715.13c0-24.175-5.976-34.23-16.786-46.787L956 589.773v12.142c-2.516 0-19.457 22.99-19.457 27.82v-12.82s-10.402 21.302-10.402 33.214v236.727z" fill="#4d4d4d"/></g><g><path d="M957.927 886.857V728.88l-17.678-50.537-17.68 50.536h-8.93l-18.57-50.537-18.57 50.536v157.977z" fill="#1a1a1a"/></g><g><path d="M823.527 886.857v-125.39c0-19.643 15.964-43.94 39.27-43.94 23.305 0 39.27 24.297 39.27 43.94v125.39z" fill="#4d4d4d"/></g><g><path d="M829.177 886.857v-35.44l2.59-2.583v-32.467l2.455-2.555v-45.634l8.936-16.056V733.21l4.35-4.362v-10.505l2.263-2.38.865-17.44.864 17.44 2.5 2.38v10.505l4.374 4.36v18.914l9.603 16.056v45.634l2.654 2.555v32.467l2.577 2.584v35.44z" fill="#1a1a1a"/></g><g><path d="M1133.896 875.205h-47.477v-141.93c14.463-7.322 34.12-6.98 47.476 0z" fill="#4d4d4d"/><path d="M1133.896 886.857h-47.477v-141.93c14.463-7.322 34.12-6.98 47.476 0z" fill="#1a1a1a"/></g><g><path d="M967.347 886.857v-58.404l4.862-21.465 4.86 21.465v22.792h3.662l17.11-30.494 17.11 30.495h3.282l.252-22.792 4.42-21.465 4.42 21.465v58.404z" fill="#1a1a1a"/></g><g><path d="M490.095 886.857l-2.525-10.3-8.93-2.272-7.07-9.026-35.57-2.274v-17.17l3.913-9.258H343.64v-1.764s3.726-1.67 3.726-3.247v-3.157c0-2.658-6.375-3.68-6.375-3.68v-5.285s7.355-3.53 7.355-6.82v-4.264c0-2.792-7.67-5.1-7.67-5.1v-3.433h9.217V786.72h-9.597v-3.724c0-2.213-1.768-2.588-1.768-2.588v-14.205l2.463-1.326h35.166l1.01 2.4h1.515v-2.053l-1.135-2.84h-39.018v-4.326h-7.197v2.526l2.715.884v3.156h-13.448v5.05h6.82v-2.524h6.628v14.52s-3.85 2.078-3.85 5.05h-9.598v13.087h4.925v6.616c0 1.96 6.584 3.475 6.584 3.475v3.368s-8.993 2.36-8.993 5.626v3.43c0 2.273 8.993 4.68 8.993 4.68v2.02s-8.993 2.47-8.993 5.312v1.793h-9.208v-4.706h4.293v-3.03l-42.253-11.322-41.968 8.797v3.535h2.146v6.566l-26.643 2.02v7.072l-17.178 4.545v8.84l-42.61-9.597H134v-4.42h16.008v-5.43h-16.01v-3.53c2.592 0 5.43-1.165 5.43-1.165v-4.647s-19.737-9.38-38.665-9.47l-4.293-8.713-4.294 8.713c-25.228-.476-46.088 9.47-46.088 9.47v4.648s3.383 1.166 6.06 1.166v3.53h-8.46v18.183h8.46v8.08h2.527v21.597h6.187V865.26h9.955v21.597h7.955V865.26h32.47v21.597h7.83V865.26h9.975v21.597h8.84V865.26h4.166v-8.586h7.64l42.61 9.547v1.566h3.035v19.07h3.024v-19.07h3.025v19.07h3.024v-19.07h3.025v19.07h3.024v-19.07h3.023v19.07h3.024v-19.07h3.024v19.07h3.026v-19.07h3.024v19.07h3.024v-19.07h3.024v19.07h3.024v-19.07h3.024v19.07h3.024v-19.07h3.025v19.07h3.024v-19.07h3.023v19.07h3.024v-19.07h3.024v19.07h3.025v-19.07h3.024v19.07h3.024v-19.07h3.024v19.07h3.024v-19.07h3.024v19.07h3.024v-19.07h3.024v19.07h3.024v-19.07h3.025v19.07h3.024v-19.07h3.024v19.07h3.025v-19.07h3.024v19.07h3.023v-19.07h3.024v19.07h3.025v-19.07h3.024v19.07h3.024v-19.07h3.024v19.07h38.89v-19.07h3.158v19.07h2.882v-19.07h18.29v19.07h2.487v-19.07h6.878v19.07h2.546v-19.07h16.58v19.07h2.74v-19.07h5.67l-.128 19.07h3.105v-19.07h3.223l5.682 3.788 3.788 15.283z" fill="#1a1a1a"/></g></svg>